<?xml version="1.0" encoding="utf-8"?>
<!-- Generator: Adobe Illustrator 22.0.0, SVG Export Plug-In . SVG Version: 6.00 Build 0)  -->
<svg version="1.1" xmlns="http://www.w3.org/2000/svg" xmlns:xlink="http://www.w3.org/1999/xlink" x="0px" y="0px"
	 viewBox="0 0 420.8 423.8" style="enable-background:new 0 0 420.8 423.8;" xml:space="preserve">
<style type="text/css">
	.st0{fill:none;stroke:#000000;stroke-width:20;stroke-linecap:round;stroke-linejoin:round;stroke-miterlimit:10;}
</style>
<g id="_x39_6">
	<g>
		<g id="XMLID_1584_">
			<path id="XMLID_1589_" class="st0" d="M38.5,208.2c-3.2,3.7-9.9,4.7-10.9,16.1c-0.6,6.4,5.4,4.7,9.5,11.9
				c7.3,12.8-13.9,23.4,1.6,41c4.9,5.6,14.7,9.8,25,10.8c20.9,2.2,49.4-7.2,65.6-0.4c31,12.9,75.9,86.7,65.3,124.6h29.2
				c42-58.8,12.2-109.5-24.4-160.2c-15-20.8-33.4-41.8-48.3-63.2c-28.2-40.6-39.1-100.3-29.3-150c3.2-16.1,1.3-15,4.6-25.9
				C108,16.6,94.7,40.2,86,55.1c-12.4,21.1-10.8,45.6-27.7,60.7c-7.6,6.8-15.8,12.9-25.6,18.9c-3.4,2.1-11.1,5.9-12.7,9.2
				c-2.6,5.5,2.5,12.8,5,15.3c2.1,2.1,19.3,8.4,11.8,18.3c-1.2,1.6-4.1,4.3-5.6,5.4C16.1,194.2,34.3,204.1,38.5,208.2L38.5,208.2z"
				/>
			<path id="XMLID_1588_" class="st0" d="M282.2,412.2c37.4-61.5,7.9-116-27.7-166.6c-15-21.3-33.4-42.8-48.3-64.8
				c-28.2-41.6-39-127.1-21.4-168"/>
			<path id="XMLID_1587_" class="st0" d="M330.9,412.2c37.4-60.1,9.6-113.3-26-162.6c-15-20.8-33.4-41.8-48.3-63.2
				C228.4,145.8,217.6,86,227.3,36.3c3.2-16.1,3-12.5,6.2-23.3"/>
			<path id="XMLID_1586_" class="st0" d="M301.7,176.6C273.5,136,248.6,61.3,272.5,13"/>
			<line id="XMLID_1585_" class="st0" x1="9.6" y1="412.2" x2="408.8" y2="412.2"/>
		</g>
	</g>
</g>
<g id="Layer_1">
</g>
</svg>
